<?xml version='1.0' encoding='ascii'?>
<svg xmlns="http://www.w3.org/2000/svg" height="540" version="1.1" width="960">
    <g id="RenderLayer_LineSet" inkscape:groupmode="lineset" inkscape:label="RenderLayer_LineSet" xmlns:inkscape="http://www.inkscape.org/namespaces/inkscape">
        <g id="strokes" inkscape:groupmode="layer" inkscape:label="strokes" xmlns:inkscape="http://www.inkscape.org/namespaces/inkscape">
            <path d=" M -36.913, 333.807 -26.913, 333.807 -16.913, 333.807 -6.913, 333.807 3.087, 333.807 13.087, 333.807 23.087, 333.807 33.087, 333.807 43.087, 333.807 53.087, 333.807 63.087, 333.807 73.087, 333.807 83.087, 333.807 93.087, 333.807 103.087, 333.807 113.087, 333.807 123.087, 333.807 133.087, 333.807 143.087, 333.807 153.087, 333.807 163.087, 333.807 173.087, 333.807 183.087, 333.807 193.087, 333.807 203.087, 333.807 213.087, 333.807 223.087, 333.807 233.087, 333.807 243.087, 333.807 253.087, 333.807 263.087, 333.807 273.087, 333.807 283.087, 333.807 293.087, 333.807 303.087, 333.807 313.087, 333.807 323.087, 333.807 333.087, 333.807 343.087, 333.807 353.087, 333.807 363.087, 333.807 373.087, 333.807 383.087, 333.807 393.087, 333.807 403.087, 333.807 413.087, 333.807 423.087, 333.807 433.087, 333.807 443.087, 333.807 453.087, 333.807 463.087, 333.807 473.087, 333.807 483.087, 333.807 493.087, 333.807 503.087, 333.807 513.087, 333.807 523.087, 333.807 533.087, 333.807 543.087, 333.807 553.087, 333.807 563.087, 333.807 573.087, 333.807 583.087, 333.807 593.087, 333.807 603.087, 333.807 613.087, 333.807 623.087, 333.807 633.087, 333.807 643.087, 333.807 653.087, 333.807 663.087, 333.807 673.087, 333.807 683.087, 333.807 693.087, 333.807 703.087, 333.807 713.087, 333.807 723.087, 333.807 733.087, 333.807 743.087, 333.807 753.087, 333.807 763.087, 333.807 773.087, 333.807 783.087, 333.807 793.087, 333.807 803.087, 333.807 813.087, 333.807 823.087, 333.807 833.087, 333.807 843.087, 333.807 853.087, 333.807 863.087, 333.807 873.087, 333.807 883.087, 333.807 893.087, 333.807 903.087, 333.807 913.087, 333.807 923.087, 333.807 933.087, 333.807 943.087, 333.807 953.087, 333.807 963.087, 333.807 973.087, 333.807 983.087, 333.807 993.087, 333.807 1003.087, 333.807 1013.087, 333.807 1023.087, 333.807 1033.087, 333.807 1043.087, 333.807 1053.087, 333.807 1063.087, 333.807 1073.087, 333.807 1083.087, 333.807 1093.087, 333.807 1103.087, 333.807 1113.087, 333.807 1123.087, 333.807 1133.087, 333.807 1143.087, 333.807 1153.087, 333.807 1163.087, 333.807 1173.087, 333.807 1183.087, 333.807 1193.087, 333.807 1203.087, 333.807 1213.087, 333.807 1223.087, 333.807 1233.087, 333.807 1243.087, 333.807 1253.087, 333.807 1263.087, 333.807 1273.087, 333.807 1283.087, 333.807 1293.087, 333.807 1303.087, 333.807 1313.087, 333.807 1323.087, 333.807 1333.087, 333.807 1343.087, 333.807 1353.087, 333.807 1363.087, 333.807 1373.087, 333.807 1383.087, 333.807 1393.087, 333.807 1403.087, 333.807 1413.087, 333.807 1423.087, 333.807 1433.087, 333.807 1443.087, 333.807 1453.087, 333.807 1463.087, 333.807 1473.087, 333.807 1483.087, 333.807 1493.087, 333.807 1503.087, 333.807 1513.087, 333.807 1523.087, 333.807 1533.087, 333.807 1543.087, 333.807 1561.626, 333.807 " fill="none" stroke="rgb(0, 0, 0)" stroke-linecap="butt" stroke-linejoin="round" stroke-opacity="1.0" stroke-width="3.0" />
            <path d=" M 1561.626, 333.807 1551.626, 333.807 1541.626, 333.807 1531.626, 333.807 1521.626, 333.807 1511.626, 333.807 1501.626, 333.807 1491.626, 333.807 1481.626, 333.807 1471.626, 333.807 1461.626, 333.807 1451.626, 333.807 1441.626, 333.807 1431.626, 333.807 1421.626, 333.807 1411.626, 333.807 1401.626, 333.807 1391.626, 333.807 1381.626, 333.807 1371.626, 333.807 1361.626, 333.807 1351.626, 333.807 1341.626, 333.807 1331.626, 333.807 1321.626, 333.807 1311.626, 333.807 1301.626, 333.807 1291.626, 333.807 1281.626, 333.807 1271.626, 333.807 1261.626, 333.807 1251.626, 333.807 1241.626, 333.807 1231.626, 333.807 1221.626, 333.807 1211.626, 333.807 1201.626, 333.807 1191.626, 333.807 1181.626, 333.807 1171.626, 333.807 1161.626, 333.807 1151.626, 333.807 1141.626, 333.807 1131.626, 333.807 1121.626, 333.807 1111.626, 333.807 1101.626, 333.807 1091.626, 333.807 1081.626, 333.807 1071.626, 333.807 1061.626, 333.807 1051.626, 333.807 1041.626, 333.807 1031.626, 333.807 1021.626, 333.807 1011.626, 333.807 1001.626, 333.807 991.626, 333.807 981.626, 333.807 971.626, 333.807 961.626, 333.807 951.626, 333.807 941.626, 333.807 931.626, 333.807 921.626, 333.807 911.626, 333.807 901.626, 333.807 891.626, 333.807 881.626, 333.807 871.626, 333.807 861.626, 333.807 851.626, 333.807 841.626, 333.807 831.626, 333.807 821.626, 333.807 811.626, 333.807 801.626, 333.807 791.626, 333.807 781.626, 333.807 771.626, 333.807 761.626, 333.807 751.626, 333.807 741.626, 333.807 731.626, 333.807 721.626, 333.807 711.626, 333.807 701.626, 333.807 691.626, 333.807 681.626, 333.807 671.626, 333.807 661.626, 333.807 651.626, 333.807 641.626, 333.807 631.626, 333.807 621.626, 333.807 611.626, 333.807 601.626, 333.807 591.626, 333.807 581.626, 333.807 571.626, 333.807 561.626, 333.807 551.626, 333.807 541.626, 333.807 531.626, 333.807 521.626, 333.807 511.626, 333.807 501.626, 333.807 491.626, 333.807 481.626, 333.807 471.626, 333.807 461.626, 333.807 451.626, 333.807 441.626, 333.807 431.626, 333.807 421.626, 333.807 411.626, 333.807 401.626, 333.807 391.626, 333.807 381.626, 333.807 371.626, 333.807 361.626, 333.807 351.626, 333.807 341.626, 333.807 331.626, 333.807 321.626, 333.807 311.626, 333.807 301.626, 333.807 291.626, 333.807 281.626, 333.807 271.626, 333.807 261.626, 333.807 251.626, 333.807 241.626, 333.807 231.626, 333.807 221.626, 333.807 211.626, 333.807 201.626, 333.807 191.626, 333.807 181.626, 333.807 171.626, 333.807 161.626, 333.807 151.626, 333.807 141.626, 333.807 131.626, 333.807 121.626, 333.807 111.626, 333.807 101.626, 333.807 91.626, 333.807 81.626, 333.807 71.626, 333.807 61.626, 333.807 51.626, 333.807 41.626, 333.807 31.626, 333.807 21.626, 333.807 11.626, 333.807 1.626, 333.807 -8.374, 333.807 -18.374, 333.807 -28.374, 333.807 -38.374, 333.807 -48.374, 333.807 -58.374, 333.807 -68.374, 333.807 -78.374, 333.807 -88.374, 333.807 -98.374, 333.807 -108.374, 333.807 -118.374, 333.807 -128.374, 333.807 -138.374, 333.807 -148.374, 333.807 -158.374, 333.807 -168.374, 333.807 -178.374, 333.807 -188.374, 333.807 -198.374, 333.807 -208.374, 333.807 -218.374, 333.807 -228.374, 333.807 -238.374, 333.807 -248.374, 333.807 -258.374, 333.807 -268.374, 333.807 -278.374, 333.807 -288.374, 333.807 -298.374, 333.807 -308.374, 333.807 -318.374, 333.807 -328.374, 333.807 -338.374, 333.807 -348.374, 333.807 -358.374, 333.807 -368.374, 333.807 -378.374, 333.807 -388.374, 333.807 -398.374, 333.807 -408.374, 333.807 -418.374, 333.807 -428.374, 333.807 -438.374, 333.807 -448.374, 333.807 -458.374, 333.807 -468.374, 333.807 -478.374, 333.807 -488.374, 333.807 -498.374, 333.807 -508.374, 333.807 -518.374, 333.807 -528.374, 333.807 -538.374, 333.807 -548.374, 333.807 -558.374, 333.807 -568.374, 333.807 -591.027, 333.807 " fill="none" stroke="rgb(0, 0, 0)" stroke-linecap="butt" stroke-linejoin="round" stroke-opacity="1.0" stroke-width="3.0" />
            <path d=" M 367.046, 125.463 367.049, 130.923 367.043, 140.923 367.041, 145.127 " fill="none" stroke="rgb(0, 0, 0)" stroke-linecap="butt" stroke-linejoin="round" stroke-opacity="1.0" stroke-width="3.0" />
            <path d=" M 274.862, 161.325 274.861, 159.854 274.857, 153.238 274.862, 143.942 274.864, 141.752 " fill="none" stroke="rgb(0, 0, 0)" stroke-linecap="butt" stroke-linejoin="round" stroke-opacity="1.0" stroke-width="3.0" />
            <path d=" M 344.453, 127.673 344.453, 127.673 344.332, 124.244 " fill="none" stroke="rgb(0, 0, 0)" stroke-linecap="butt" stroke-linejoin="round" stroke-opacity="1.0" stroke-width="3.0" />
            <path d=" M 446.996, 187.546 446.998, 187.543 449.165, 184.620 " fill="none" stroke="rgb(0, 0, 0)" stroke-linecap="butt" stroke-linejoin="round" stroke-opacity="1.0" stroke-width="3.0" />
            <path d=" M 413.714, 182.902 411.841, 185.420 411.552, 185.809 " fill="none" stroke="rgb(0, 0, 0)" stroke-linecap="butt" stroke-linejoin="round" stroke-opacity="1.0" stroke-width="3.0" />
            <path d=" M 387.941, 182.671 387.941, 182.672 389.560, 184.065 390.128, 184.554 " fill="none" stroke="rgb(0, 0, 0)" stroke-linecap="butt" stroke-linejoin="round" stroke-opacity="1.0" stroke-width="3.0" />
            <path d=" M 387.119, 188.474 387.844, 187.165 " fill="none" stroke="rgb(0, 0, 0)" stroke-linecap="butt" stroke-linejoin="round" stroke-opacity="1.0" stroke-width="3.0" />
            <path d=" M 409.328, 166.264 407.755, 166.496 " fill="none" stroke="rgb(0, 0, 0)" stroke-linecap="butt" stroke-linejoin="round" stroke-opacity="1.0" stroke-width="3.0" />
            <path d=" M 398.503, 153.212 398.503, 153.212 400.324, 154.849 " fill="none" stroke="rgb(0, 0, 0)" stroke-linecap="butt" stroke-linejoin="round" stroke-opacity="1.0" stroke-width="3.0" />
            <path d=" M 513.482, 158.330 513.482, 154.859 " fill="none" stroke="rgb(0, 0, 0)" stroke-linecap="butt" stroke-linejoin="round" stroke-opacity="1.0" stroke-width="3.0" />
            <path d=" M 445.858, 143.160 445.858, 140.167 445.856, 130.167 445.855, 128.336 445.856, 124.156 445.856, 123.282 " fill="none" stroke="rgb(0, 0, 0)" stroke-linecap="butt" stroke-linejoin="round" stroke-opacity="1.0" stroke-width="3.0" />
            <path d=" M 509.522, 138.641 509.522, 138.642 509.531, 141.850 " fill="none" stroke="rgb(0, 0, 0)" stroke-linecap="butt" stroke-linejoin="round" stroke-opacity="1.0" stroke-width="3.0" />
            <path d=" M 506.616, 140.341 506.616, 140.341 509.353, 141.758 " fill="none" stroke="rgb(0, 0, 0)" stroke-linecap="butt" stroke-linejoin="round" stroke-opacity="1.0" stroke-width="3.0" />
            <path d=" M 474.609, 138.927 474.609, 138.927 475.790, 141.364 " fill="none" stroke="rgb(0, 0, 0)" stroke-linecap="butt" stroke-linejoin="round" stroke-opacity="1.0" stroke-width="3.0" />
            <path d=" M 527.165, 161.325 527.164, 159.854 527.163, 158.579 " fill="none" stroke="rgb(0, 0, 0)" stroke-linecap="butt" stroke-linejoin="round" stroke-opacity="1.0" stroke-width="3.0" />
            <path d=" M 596.756, 127.673 596.756, 127.673 596.634, 124.245 " fill="none" stroke="rgb(0, 0, 0)" stroke-linecap="butt" stroke-linejoin="round" stroke-opacity="1.0" stroke-width="3.0" />
            <path d=" M 649.818, 167.480 649.818, 167.481 649.822, 167.489 650.646, 169.493 " fill="none" stroke="rgb(0, 0, 0)" stroke-linecap="butt" stroke-linejoin="round" stroke-opacity="1.0" stroke-width="3.0" />
            <path d=" M 709.315, 110.559 709.322, 120.559 709.325, 124.583 709.320, 130.345 " fill="none" stroke="rgb(0, 0, 0)" stroke-linecap="butt" stroke-linejoin="round" stroke-opacity="1.0" stroke-width="3.0" />
            <path d=" M 708.553, 172.057 708.556, 175.612 708.551, 185.612 708.551, 186.165 708.548, 191.887 " fill="none" stroke="rgb(0, 0, 0)" stroke-linecap="butt" stroke-linejoin="round" stroke-opacity="1.0" stroke-width="3.0" />
            <path d=" M 650.515, 152.883 650.515, 152.883 651.249, 150.870 651.400, 150.455 " fill="none" stroke="rgb(0, 0, 0)" stroke-linecap="butt" stroke-linejoin="round" stroke-opacity="1.0" stroke-width="3.0" />
            <path d=" M 668.470, 151.123 668.464, 151.121 666.259, 150.562 " fill="none" stroke="rgb(0, 0, 0)" stroke-linecap="butt" stroke-linejoin="round" stroke-opacity="1.0" stroke-width="3.0" />
            <path d=" M 695.166, 137.643 695.166, 137.643 697.740, 138.993 " fill="none" stroke="rgb(0, 0, 0)" stroke-linecap="butt" stroke-linejoin="round" stroke-opacity="1.0" stroke-width="3.0" />
            <path d=" M 666.608, 185.853 666.607, 185.853 663.806, 184.225 " fill="none" stroke="rgb(0, 0, 0)" stroke-linecap="butt" stroke-linejoin="round" stroke-opacity="1.0" stroke-width="3.0" />
            <path d=" M 666.897, 166.845 666.894, 166.854 666.225, 168.825 " fill="none" stroke="rgb(0, 0, 0)" stroke-linecap="butt" stroke-linejoin="round" stroke-opacity="1.0" stroke-width="3.0" />
            <path d=" M 648.719, 168.819 648.720, 168.819 650.646, 169.493 " fill="none" stroke="rgb(0, 0, 0)" stroke-linecap="butt" stroke-linejoin="round" stroke-opacity="1.0" stroke-width="3.0" />
            <path d=" M 650.118, 185.825 650.119, 185.824 652.384, 183.813 " fill="none" stroke="rgb(0, 0, 0)" stroke-linecap="butt" stroke-linejoin="round" stroke-opacity="1.0" stroke-width="3.0" />
            <path d=" M 621.446, 185.187 621.424, 185.176 618.132, 183.458 " fill="none" stroke="rgb(0, 0, 0)" stroke-linecap="butt" stroke-linejoin="round" stroke-opacity="1.0" stroke-width="3.0" />
            <path d=" M 621.998, 138.305 619.427, 140.092 " fill="none" stroke="rgb(0, 0, 0)" stroke-linecap="butt" stroke-linejoin="round" stroke-opacity="1.0" stroke-width="3.0" />
            <path d=" M 253.782, 252.392 253.781, 250.921 253.777, 244.305 253.782, 235.009 253.784, 232.819 " fill="none" stroke="rgb(0, 0, 0)" stroke-linecap="butt" stroke-linejoin="round" stroke-opacity="1.0" stroke-width="3.0" />
            <path d=" M 323.373, 218.740 323.252, 215.312 " fill="none" stroke="rgb(0, 0, 0)" stroke-linecap="butt" stroke-linejoin="round" stroke-opacity="1.0" stroke-width="3.0" />
            <path d=" M 421.462, 233.936 421.462, 233.935 421.459, 223.935 421.456, 214.152 " fill="none" stroke="rgb(0, 0, 0)" stroke-linecap="butt" stroke-linejoin="round" stroke-opacity="1.0" stroke-width="3.0" />
            <path d=" M 375.000, 259.986 375.000, 259.986 377.209, 260.750 " fill="none" stroke="rgb(0, 0, 0)" stroke-linecap="butt" stroke-linejoin="round" stroke-opacity="1.0" stroke-width="3.0" />
            <path d=" M 376.425, 278.383 378.552, 276.083 " fill="none" stroke="rgb(0, 0, 0)" stroke-linecap="butt" stroke-linejoin="round" stroke-opacity="1.0" stroke-width="3.0" />
            <path d=" M 403.829, 253.126 403.829, 253.125 405.114, 251.508 " fill="none" stroke="rgb(0, 0, 0)" stroke-linecap="butt" stroke-linejoin="round" stroke-opacity="1.0" stroke-width="3.0" />
            <path d=" M 419.689, 278.331 419.689, 278.330 419.699, 278.318 421.314, 276.223 " fill="none" stroke="rgb(0, 0, 0)" stroke-linecap="butt" stroke-linejoin="round" stroke-opacity="1.0" stroke-width="3.0" />
            <path d=" M 375.058, 227.850 376.851, 228.596 377.614, 228.913 " fill="none" stroke="rgb(0, 0, 0)" stroke-linecap="butt" stroke-linejoin="round" stroke-opacity="1.0" stroke-width="3.0" />
            <path d=" M 375.616, 246.973 376.042, 245.019 " fill="none" stroke="rgb(0, 0, 0)" stroke-linecap="butt" stroke-linejoin="round" stroke-opacity="1.0" stroke-width="3.0" />
            <path d=" M 421.765, 252.287 421.764, 250.924 421.759, 244.744 421.763, 238.220 421.765, 235.042 421.766, 232.736 " fill="none" stroke="rgb(0, 0, 0)" stroke-linecap="butt" stroke-linejoin="round" stroke-opacity="1.0" stroke-width="3.0" />
            <path d=" M 549.959, 225.390 553.296, 227.249 " fill="none" stroke="rgb(0, 0, 0)" stroke-linecap="butt" stroke-linejoin="round" stroke-opacity="1.0" stroke-width="3.0" />
            <path d=" M 565.377, 235.134 565.373, 235.135 563.779, 235.561 563.259, 235.699 " fill="none" stroke="rgb(0, 0, 0)" stroke-linecap="butt" stroke-linejoin="round" stroke-opacity="1.0" stroke-width="3.0" />
            <path d=" M 604.550, 246.920 602.714, 245.427 " fill="none" stroke="rgb(0, 0, 0)" stroke-linecap="butt" stroke-linejoin="round" stroke-opacity="1.0" stroke-width="3.0" />
            <path d=" M 609.319, 225.662 608.030, 228.200 " fill="none" stroke="rgb(0, 0, 0)" stroke-linecap="butt" stroke-linejoin="round" stroke-opacity="1.0" stroke-width="3.0" />
            <path d=" M 571.565, 256.976 571.565, 256.976 572.815, 257.938 " fill="none" stroke="rgb(0, 0, 0)" stroke-linecap="butt" stroke-linejoin="round" stroke-opacity="1.0" stroke-width="3.0" />
            <path d=" M 519.637, 228.136 519.635, 228.140 519.164, 228.721 518.196, 229.915 " fill="none" stroke="rgb(0, 0, 0)" stroke-linecap="butt" stroke-linejoin="round" stroke-opacity="1.0" stroke-width="3.0" />
            <path d=" M 549.863, 225.574 549.866, 225.575 553.296, 227.249 " fill="none" stroke="rgb(0, 0, 0)" stroke-linecap="butt" stroke-linejoin="round" stroke-opacity="1.0" stroke-width="3.0" />
            <path d=" M 560.000, 248.440 558.884, 247.235 " fill="none" stroke="rgb(0, 0, 0)" stroke-linecap="butt" stroke-linejoin="round" stroke-opacity="1.0" stroke-width="3.0" />
            <path d=" M 683.108, 220.434 683.111, 210.434 683.112, 208.242 683.112, 207.687 " fill="none" stroke="rgb(0, 0, 0)" stroke-linecap="butt" stroke-linejoin="round" stroke-opacity="1.0" stroke-width="3.0" />
            <path d=" M 730.397, 200.844 730.405, 210.844 730.405, 211.451 730.398, 220.609 " fill="none" stroke="rgb(0, 0, 0)" stroke-linecap="butt" stroke-linejoin="round" stroke-opacity="1.0" stroke-width="3.0" />
            <path d=" M 721.459, 258.873 721.459, 248.873 721.459, 242.802 721.459, 240.654 721.459, 239.956 " fill="none" stroke="rgb(0, 0, 0)" stroke-linecap="butt" stroke-linejoin="round" stroke-opacity="1.0" stroke-width="3.0" />
            <path d=" M 627.027, 283.424 627.026, 276.139 627.024, 266.139 627.023, 263.518 " fill="none" stroke="rgb(0, 0, 0)" stroke-linecap="butt" stroke-linejoin="round" stroke-opacity="1.0" stroke-width="3.0" />
            <path d=" M 698.310, 243.483 696.196, 242.484 " fill="none" stroke="rgb(0, 0, 0)" stroke-linecap="butt" stroke-linejoin="round" stroke-opacity="1.0" stroke-width="3.0" />
            <path d=" M 715.820, 227.958 715.820, 227.959 718.365, 229.700 " fill="none" stroke="rgb(0, 0, 0)" stroke-linecap="butt" stroke-linejoin="round" stroke-opacity="1.0" stroke-width="3.0" />
            <path d=" M 660.213, 255.957 660.213, 255.957 660.877, 256.442 662.189, 257.400 " fill="none" stroke="rgb(0, 0, 0)" stroke-linecap="butt" stroke-linejoin="round" stroke-opacity="1.0" stroke-width="3.0" />
            <path d=" M 344.655, 99.769 344.615, 99.755 344.327, 99.646 343.986, 99.508 343.597, 99.343 343.163, 99.150 342.605, 98.893 341.198, 98.262 339.692, 97.649 338.171, 97.092 336.635, 96.591 335.086, 96.147 333.523, 95.762 331.949, 95.434 330.364, 95.166 328.770, 94.957 327.167, 94.808 325.557, 94.719 323.945, 94.689 322.252, 94.718 320.570, 94.805 318.893, 94.950 317.224, 95.153 315.563, 95.414 313.911, 95.733 312.269, 96.110 310.638, 96.544 309.018, 97.035 307.411, 97.581 305.818, 98.184 304.225, 98.847 302.224, 99.765 300.265, 100.760 298.362, 101.826 296.515, 102.965 294.726, 104.176 292.998, 105.458 291.332, 106.811 289.729, 108.234 288.192, 109.726 286.722, 111.285 285.320, 112.910 283.979, 114.608 282.552, 116.599 281.233, 118.649 280.032, 120.750 278.951, 122.900 277.993, 125.095 277.160, 127.334 276.454, 129.613 275.877, 131.928 275.429, 134.274 275.110, 136.649 274.920, 139.048 274.857, 141.461 " fill="none" stroke="rgb(0, 0, 0)" stroke-linecap="butt" stroke-linejoin="round" stroke-opacity="1.0" stroke-width="3.0" />
            <path d=" M 367.049, 125.372 367.003, 123.428 366.865, 121.532 366.632, 119.662 366.301, 117.821 365.869, 116.011 365.336, 114.237 364.699, 112.504 363.960, 110.816 363.119, 109.179 362.178, 107.598 361.140, 106.078 360.017, 104.634 359.365, 103.886 358.674, 103.180 357.929, 102.506 357.127, 101.869 356.266, 101.279 355.347, 100.745 354.374, 100.277 353.356, 99.885 352.302, 99.575 351.225, 99.354 350.138, 99.223 349.172, 99.185 348.782, 99.188 348.512, 99.194 348.241, 99.205 347.968, 99.221 347.693, 99.242 347.417, 99.268 347.138, 99.299 346.858, 99.336 346.576, 99.380 346.292, 99.429 346.006, 99.485 345.779, 99.535 345.438, 99.612 345.180, 99.667 344.945, 99.715 344.735, 99.755 344.655, 99.769 " fill="none" stroke="rgb(0, 0, 0)" stroke-linecap="butt" stroke-linejoin="round" stroke-opacity="1.0" stroke-width="3.0" />
            <path d=" M 333.245, 152.837 332.315, 152.803 331.039, 152.656 329.870, 152.422 328.792, 152.106 327.791, 151.712 326.849, 151.236 325.949, 150.671 325.078, 150.005 324.226, 149.224 323.387, 148.314 322.564, 147.261 321.735, 146.020 321.589, 145.770 " fill="none" stroke="rgb(0, 0, 0)" stroke-linecap="butt" stroke-linejoin="round" stroke-opacity="1.0" stroke-width="3.0" />
            <path d=" M 365.072, 159.289 365.057, 158.620 365.002, 157.840 364.907, 157.056 364.771, 156.271 364.612, 155.578 " fill="none" stroke="rgb(0, 0, 0)" stroke-linecap="butt" stroke-linejoin="round" stroke-opacity="1.0" stroke-width="3.0" />
            <path d=" M 318.144, 152.950 318.146, 152.857 318.161, 152.153 318.208, 151.413 318.283, 150.733 318.382, 150.112 318.503, 149.549 318.641, 149.040 318.794, 148.584 318.959, 148.175 319.136, 147.809 319.322, 147.478 319.519, 147.176 319.728, 146.900 319.935, 146.663 320.127, 146.474 320.306, 146.321 320.477, 146.197 320.649, 146.093 320.830, 146.001 321.030, 145.919 321.263, 145.845 321.536, 145.779 321.589, 145.770 321.860, 145.726 322.241, 145.689 322.694, 145.675 323.228, 145.690 323.768, 145.734 324.302, 145.806 324.835, 145.908 325.369, 146.041 325.908, 146.206 326.455, 146.405 327.012, 146.641 327.580, 146.916 328.161, 147.232 328.756, 147.593 329.392, 148.019 329.561, 148.140 329.751, 148.284 329.934, 148.430 330.111, 148.579 330.281, 148.729 330.446, 148.882 330.605, 149.038 330.759, 149.196 330.908, 149.357 331.053, 149.520 331.193, 149.687 331.325, 149.851 331.462, 150.031 331.626, 150.258 331.818, 150.535 332.036, 150.862 332.276, 151.234 332.536, 151.651 332.816, 152.110 333.113, 152.610 333.245, 152.837 333.427, 153.151 333.757, 153.732 334.103, 154.351 334.490, 155.057 334.826, 155.658 335.201, 156.294 335.590, 156.917 335.997, 157.528 336.423, 158.128 336.871, 158.717 337.347, 159.294 337.853, 159.861 338.395, 160.414 338.976, 160.953 339.603, 161.473 340.273, 161.965 340.974, 162.416 341.695, 162.820 342.432, 163.176 343.179, 163.487 343.934, 163.752 344.692, 163.974 345.451, 164.155 346.209, 164.297 346.965, 164.404 347.717, 164.477 348.466, 164.520 349.231, 164.534 350.075, 164.515 350.934, 164.456 351.793, 164.356 352.649, 164.214 353.499, 164.029 354.340, 163.802 355.169, 163.533 355.984, 163.222 356.782, 162.870 357.560, 162.480 358.316, 162.052 359.111, 161.549 360.329, 160.659 361.521, 159.613 362.615, 158.459 363.598, 157.207 364.458, 155.874 364.612, 155.578 365.189, 154.474 365.791, 153.026 366.266, 151.544 366.621, 150.038 366.865, 148.517 367.004, 146.986 367.049, 145.461 " fill="none" stroke="rgb(0, 0, 0)" stroke-linecap="butt" stroke-linejoin="round" stroke-opacity="1.0" stroke-width="3.0" />
            <path d=" M 274.857, 161.550 274.908, 163.671 275.061, 165.775 275.316, 167.866 275.674, 169.942 276.133, 172.000 276.692, 174.039 277.351, 176.055 278.107, 178.047 278.960, 180.013 279.907, 181.952 280.946, 183.862 282.080, 185.752 283.332, 187.647 284.556, 189.326 284.665, 189.476 286.078, 191.232 287.570, 192.912 289.140, 194.514 290.787, 196.033 292.508, 197.469 294.304, 198.818 296.170, 200.080 298.105, 201.251 300.106, 202.333 302.144, 203.310 303.916, 204.076 305.668, 204.767 307.430, 205.396 309.200, 205.961 310.980, 206.463 312.768, 206.899 314.562, 207.270 316.364, 207.575 318.170, 207.812 319.981, 207.982 321.795, 208.085 323.053, 208.108 323.611, 208.119 323.989, 208.112 325.357, 208.086 327.096, 207.989 328.827, 207.827 330.548, 207.599 332.259, 207.306 333.438, 207.057 333.959, 206.948 335.645, 206.525 337.317, 206.039 338.975, 205.488 340.616, 204.876 342.240, 204.201 343.619, 203.569 343.762, 203.503 344.319, 203.241 344.765, 203.038 345.184, 202.854 345.574, 202.691 345.934, 202.548 346.263, 202.424 346.558, 202.319 346.818, 202.234 347.039, 202.168 347.218, 202.119 347.351, 202.087 347.545, 202.048 348.178, 201.925 348.895, 201.770 349.592, 201.603 350.273, 201.421 350.941, 201.223 351.600, 201.005 352.254, 200.763 352.909, 200.490 353.573, 200.176 354.254, 199.808 354.396, 199.719 " fill="none" stroke="rgb(0, 0, 0)" stroke-linecap="butt" stroke-linejoin="round" stroke-opacity="1.0" stroke-width="3.0" />
            <path d=" M 451.754, 160.960 451.711, 160.880 451.536, 160.546 451.347, 160.173 451.158, 159.785 446.929, 150.723 442.700, 141.661 440.815, 137.623 438.600, 132.956 436.461, 128.581 434.402, 124.508 432.423, 120.735 430.518, 117.258 428.685, 114.072 426.917, 111.170 425.204, 108.544 423.530, 106.182 421.871, 104.066 420.182, 102.174 418.510, 100.597 417.292, 99.614 416.143, 98.771 414.960, 97.987 413.739, 97.266 412.482, 96.614 411.187, 96.035 409.858, 95.534 408.496, 95.116 407.107, 94.786 405.696, 94.548 404.269, 94.405 402.855, 94.358 401.432, 94.397 400.041, 94.516 398.659, 94.719 397.291, 95.011 395.944, 95.392 394.623, 95.865 393.337, 96.429 392.093, 97.083 390.899, 97.822 389.760, 98.643 388.682, 99.538 387.722, 100.451 387.241, 100.951 386.821, 101.412 386.410, 101.892 386.007, 102.394 385.615, 102.920 385.235, 103.473 384.870, 104.053 384.523, 104.665 384.198, 105.308 383.900, 105.982 383.632, 106.688 383.405, 107.406 383.227, 108.100 383.087, 108.764 382.974, 109.417 382.880, 110.070 382.801, 110.732 382.735, 111.410 382.680, 112.107 382.635, 112.827 382.598, 113.574 382.569, 114.350 382.548, 115.156 382.536, 115.927 382.521, 116.533 382.493, 117.076 382.451, 117.624 382.394, 118.178 382.322, 118.738 382.235, 119.304 382.133, 119.876 382.015, 120.455 381.881, 121.041 381.731, 121.634 381.564, 122.234 381.381, 122.843 381.167, 123.499 380.910, 124.243 380.609, 125.070 380.264, 125.978 379.877, 126.963 379.448, 128.023 378.977, 129.156 378.464, 130.361 377.910, 131.637 377.315, 132.983 376.679, 134.398 375.996, 135.898 371.844, 144.996 368.272, 152.825 367.735, 153.991 367.230, 155.064 366.751, 156.057 366.300, 156.970 365.877, 157.799 365.484, 158.542 365.125, 159.196 365.072, 159.289 " fill="none" stroke="rgb(0, 0, 0)" stroke-linecap="butt" stroke-linejoin="round" stroke-opacity="1.0" stroke-width="3.0" />
            <path d=" M 460.727, 168.542 460.640, 168.247 460.010, 166.832 459.168, 165.495 458.145, 164.298 456.992, 163.282 455.766, 162.461 454.514, 161.826 453.267, 161.353 452.040, 161.014 451.754, 160.960 " fill="none" stroke="rgb(0, 0, 0)" stroke-linecap="butt" stroke-linejoin="round" stroke-opacity="1.0" stroke-width="3.0" />
            <path d=" M 400.962, 194.594 401.009, 195.072 401.154, 195.937 401.362, 196.799 401.633, 197.649 401.965, 198.478 402.356, 199.279 402.799, 200.044 403.290, 200.769 403.821, 201.448 404.385, 202.081 404.975, 202.665 405.585, 203.201 406.216, 203.697 406.869, 204.155 407.541, 204.574 408.228, 204.953 408.926, 205.295 409.634, 205.599 410.348, 205.868 411.068, 206.104 411.791, 206.307 412.518, 206.480 413.237, 206.623 414.505, 206.832 415.824, 207.013 417.204, 207.170 418.653, 207.307 420.172, 207.425 420.725, 207.459 421.765, 207.524 423.435, 207.607 425.183, 207.674 427.011, 207.724 428.675, 207.756 428.920, 207.760 430.912, 207.782 433.000, 207.789 434.881, 207.776 436.700, 207.737 438.447, 207.671 440.123, 207.577 441.731, 207.455 443.275, 207.303 444.756, 207.118 446.181, 206.899 447.554, 206.641 448.882, 206.339 450.172, 205.985 451.432, 205.568 452.669, 205.074 453.885, 204.488 455.074, 203.796 456.226, 202.983 457.324, 202.037 458.343, 200.951 459.252, 199.729 460.020, 198.390 460.619, 196.964 460.956, 195.781 " fill="none" stroke="rgb(0, 0, 0)" stroke-linecap="butt" stroke-linejoin="round" stroke-opacity="1.0" stroke-width="3.0" />
            <path d=" M 400.023, 188.946 400.901, 188.962 401.037, 188.964 401.272, 188.968 " fill="none" stroke="rgb(0, 0, 0)" stroke-linecap="butt" stroke-linejoin="round" stroke-opacity="1.0" stroke-width="3.0" />
            <path d=" M 390.212, 206.280 392.401, 205.507 394.528, 204.457 396.568, 203.037 398.420, 201.159 399.893, 198.822 400.796, 196.184 400.962, 194.594 " fill="none" stroke="rgb(0, 0, 0)" stroke-linecap="butt" stroke-linejoin="round" stroke-opacity="1.0" stroke-width="3.0" />
            <path d=" M 354.396, 199.719 354.743, 200.410 355.567, 201.645 356.534, 202.764 357.611, 203.743 358.762, 204.569 359.956, 205.246 361.168, 205.785 362.337, 206.188 363.468, 206.496 364.565, 206.746 365.687, 206.956 366.840, 207.135 368.029, 207.285 369.259, 207.411 " fill="none" stroke="rgb(0, 0, 0)" stroke-linecap="butt" stroke-linejoin="round" stroke-opacity="1.0" stroke-width="3.0" />
            <path d=" M 538.305, 112.119 538.183, 111.755 537.615, 110.298 536.977, 108.861 536.271, 107.447 535.501, 106.055 534.665, 104.684 533.780, 103.356 532.856, 102.098 531.884, 100.905 530.853, 99.779 529.752, 98.723 528.568, 97.744 527.290, 96.853 525.910, 96.070 524.424, 95.417 522.844, 94.924 521.191, 94.616 519.684, 94.522 519.069, 94.531 518.643, 94.549 518.223, 94.578 517.807, 94.616 517.395, 94.664 516.988, 94.721 516.584, 94.787 516.183, 94.860 515.784, 94.941 515.388, 95.029 514.993, 95.124 514.662, 95.209 514.082, 95.358 513.558, 95.483 513.026, 95.600 512.485, 95.709 511.936, 95.808 511.378, 95.899 510.811, 95.980 510.234, 96.051 509.648, 96.112 509.050, 96.162 508.442, 96.202 507.922, 96.225 497.922, 96.225 487.922, 96.225 479.218, 96.225 478.855, 96.224 478.517, 96.220 478.189, 96.214 477.872, 96.205 477.565, 96.194 477.270, 96.180 476.986, 96.164 476.713, 96.147 476.451, 96.127 476.201, 96.105 475.963, 96.082 475.734, 96.057 475.496, 96.028 475.234, 95.994 474.951, 95.953 474.647, 95.908 474.323, 95.856 473.980, 95.799 473.618, 95.737 473.238, 95.669 472.839, 95.595 472.423, 95.515 471.989, 95.430 471.518, 95.335 471.250, 95.281 470.956, 95.225 470.656, 95.170 470.348, 95.117 470.031, 95.066 469.704, 95.018 469.366, 94.974 469.016, 94.935 468.652, 94.902 468.273, 94.877 467.879, 94.860 467.307, 94.851 465.914, 94.931 464.392, 95.193 462.932, 95.610 461.549, 96.161 460.251, 96.825 459.036, 97.584 457.898, 98.421 456.827, 99.328 455.815, 100.298 454.851, 101.327 453.928, 102.415 453.057, 103.537 452.509, 104.290 451.999, 105.028 451.506, 105.777 451.030, 106.538 450.573, 107.310 450.134, 108.093 449.713, 108.887 449.310, 109.691 448.926, 110.504 448.561, 111.328 448.214, 112.162 447.886, 113.005 447.579, 113.851 447.295, 114.697 447.034, 115.543 446.797, 116.390 446.585, 117.238 446.397, 118.087 446.236, 118.937 446.102, 119.790 445.996, 120.644 445.919, 121.499 445.871, 122.356 445.855, 123.231 " fill="none" stroke="rgb(0, 0, 0)" stroke-linecap="butt" stroke-linejoin="round" stroke-opacity="1.0" stroke-width="3.0" />
            <path d=" M 513.672, 159.644 513.651, 159.509 513.605, 159.155 513.565, 158.742 513.530, 158.271 513.505, 157.747 513.488, 157.170 513.482, 156.511 " fill="none" stroke="rgb(0, 0, 0)" stroke-linecap="butt" stroke-linejoin="round" stroke-opacity="1.0" stroke-width="3.0" />
            <path d=" M 523.301, 172.305 523.299, 172.198 523.282, 171.482 523.232, 170.783 523.144, 170.071 523.013, 169.348 522.836, 168.616 522.608, 167.879 522.326, 167.143 521.989, 166.414 521.595, 165.700 521.146, 165.010 520.645, 164.352 520.107, 163.743 519.560, 163.205 519.021, 162.734 518.487, 162.313 517.955, 161.931 517.423, 161.580 516.889, 161.252 516.349, 160.943 515.801, 160.648 515.243, 160.366 514.672, 160.092 514.089, 159.825 513.672, 159.644 " fill="none" stroke="rgb(0, 0, 0)" stroke-linecap="butt" stroke-linejoin="round" stroke-opacity="1.0" stroke-width="3.0" />
            <path d=" M 470.054, 159.937 469.610, 160.078 469.156, 160.227 468.733, 160.370 468.340, 160.509 467.969, 160.645 467.611, 160.784 467.244, 160.934 466.823, 161.122 466.270, 161.402 465.376, 161.950 464.510, 162.595 463.699, 163.327 462.957, 164.139 462.300, 165.017 461.736, 165.946 461.273, 166.907 460.908, 167.882 460.727, 168.542 " fill="none" stroke="rgb(0, 0, 0)" stroke-linecap="butt" stroke-linejoin="round" stroke-opacity="1.0" stroke-width="3.0" />
            <path d=" M 470.586, 155.169 470.535, 155.810 470.469, 156.565 470.404, 157.236 470.329, 157.931 470.251, 158.574 470.173, 159.162 470.094, 159.692 470.054, 159.937 " fill="none" stroke="rgb(0, 0, 0)" stroke-linecap="butt" stroke-linejoin="round" stroke-opacity="1.0" stroke-width="3.0" />
            <path d=" M 513.482, 154.859 513.802, 155.137 514.454, 155.655 515.152, 156.154 515.890, 156.622 516.656, 157.048 517.445, 157.431 518.255, 157.768 519.080, 158.059 519.917, 158.302 520.762, 158.497 521.612, 158.647 522.463, 158.751 523.312, 158.812 524.156, 158.832 525.021, 158.813 525.884, 158.753 526.748, 158.650 527.163, 158.579 " fill="none" stroke="rgb(0, 0, 0)" stroke-linecap="butt" stroke-linejoin="round" stroke-opacity="1.0" stroke-width="3.0" />
            <path d=" M 513.482, 176.600 513.482, 166.600 513.482, 159.698 513.482, 159.559 513.482, 154.859 " fill="none" stroke="rgb(0, 0, 0)" stroke-linecap="butt" stroke-linejoin="round" stroke-opacity="1.0" stroke-width="3.0" />
            <path d=" M 484.981, 207.517 487.053, 207.636 489.211, 207.721 491.454, 207.772 493.788, 207.789 495.711, 207.775 497.566, 207.732 499.353, 207.659 501.075, 207.557 502.733, 207.423 504.331, 207.257 505.871, 207.056 506.526, 206.951 507.355, 206.818 508.789, 206.541 510.177, 206.218 510.567, 206.110 511.522, 205.846 512.830, 205.415 514.105, 204.916 515.350, 204.338 516.566, 203.665 517.748, 202.881 518.885, 201.970 519.955, 200.917 520.930, 199.715 521.774, 198.374 522.452, 196.916 522.936, 195.382 523.219, 193.819 523.301, 192.394 " fill="none" stroke="rgb(0, 0, 0)" stroke-linecap="butt" stroke-linejoin="round" stroke-opacity="1.0" stroke-width="3.0" />
            <path d=" M 460.956, 195.781 461.180, 196.498 461.869, 197.988 462.733, 199.364 463.739, 200.596 464.847, 201.675 466.027, 202.605 467.255, 203.399 468.518, 204.074 469.811, 204.648 471.124, 205.133 472.633, 205.600 474.190, 206.007 " fill="none" stroke="rgb(0, 0, 0)" stroke-linecap="butt" stroke-linejoin="round" stroke-opacity="1.0" stroke-width="3.0" />
            <path d=" M 445.855, 143.320 445.877, 144.240 445.945, 145.180 446.063, 146.122 446.233, 147.063 446.459, 148.001 446.742, 148.931 447.084, 149.848 447.486, 150.747 447.946, 151.621 448.464, 152.465 449.035, 153.273 449.657, 154.042 450.330, 154.771 451.057, 155.461 451.841, 156.105 452.678, 156.698 453.563, 157.230 454.489, 157.694 455.447, 158.087 456.428, 158.405 457.421, 158.647 458.418, 158.815 459.411, 158.912 460.407, 158.944 461.358, 158.912 462.308, 158.816 463.242, 158.660 464.156, 158.447 465.045, 158.183 465.908, 157.870 466.744, 157.514 467.552, 157.120 468.333, 156.689 469.088, 156.226 469.820, 155.733 470.564, 155.186 470.586, 155.169 471.270, 154.612 " fill="none" stroke="rgb(0, 0, 0)" stroke-linecap="butt" stroke-linejoin="round" stroke-opacity="1.0" stroke-width="3.0" />
            <path d=" M 596.958, 99.769 596.918, 99.755 596.630, 99.646 596.289, 99.508 595.900, 99.343 595.466, 99.150 594.908, 98.893 593.500, 98.262 591.995, 97.649 590.473, 97.092 588.938, 96.591 587.388, 96.147 585.826, 95.761 584.252, 95.434 582.667, 95.166 581.072, 94.957 579.470, 94.808 577.860, 94.719 576.248, 94.689 574.555, 94.718 572.872, 94.805 571.196, 94.950 569.527, 95.153 567.866, 95.414 566.213, 95.733 564.571, 96.110 562.940, 96.544 561.321, 97.035 559.714, 97.581 558.120, 98.184 556.528, 98.847 554.526, 99.765 552.568, 100.760 550.664, 101.826 548.817, 102.965 547.029, 104.176 545.301, 105.458 543.635, 106.811 542.032, 108.234 540.495, 109.726 539.025, 111.285 538.305, 112.119 " fill="none" stroke="rgb(0, 0, 0)" stroke-linecap="butt" stroke-linejoin="round" stroke-opacity="1.0" stroke-width="3.0" />
            <path d=" M 610.850, 103.065 610.232, 102.506 609.430, 101.869 608.568, 101.279 607.649, 100.745 606.677, 100.277 605.659, 99.885 604.605, 99.575 603.528, 99.354 602.440, 99.223 601.475, 99.185 601.084, 99.188 600.815, 99.194 600.544, 99.205 600.271, 99.221 599.996, 99.242 599.719, 99.268 599.441, 99.299 599.161, 99.336 598.878, 99.380 598.594, 99.429 598.308, 99.485 598.082, 99.535 597.740, 99.612 597.482, 99.667 597.247, 99.715 597.038, 99.755 596.958, 99.769 " fill="none" stroke="rgb(0, 0, 0)" stroke-linecap="butt" stroke-linejoin="round" stroke-opacity="1.0" stroke-width="3.0" />
            <path d=" M 585.547, 152.837 584.617, 152.803 583.342, 152.656 582.172, 152.422 581.095, 152.106 580.094, 151.712 579.152, 151.236 578.252, 150.671 577.381, 150.005 576.528, 149.224 575.690, 148.314 574.866, 147.261 574.037, 146.020 573.891, 145.770 " fill="none" stroke="rgb(0, 0, 0)" stroke-linecap="butt" stroke-linejoin="round" stroke-opacity="1.0" stroke-width="3.0" />
            <path d=" M 570.447, 152.949 570.449, 152.857 570.463, 152.153 570.510, 151.413 570.585, 150.733 570.685, 150.112 570.805, 149.549 570.943, 149.040 571.097, 148.584 571.262, 148.175 571.438, 147.809 571.625, 147.478 571.822, 147.176 572.031, 146.901 572.238, 146.664 572.429, 146.474 572.608, 146.321 572.780, 146.197 572.951, 146.093 573.132, 146.001 573.333, 145.919 573.565, 145.845 573.839, 145.779 573.891, 145.770 574.163, 145.726 574.544, 145.689 574.997, 145.675 575.530, 145.690 576.070, 145.734 576.605, 145.806 577.137, 145.908 577.672, 146.041 578.211, 146.206 578.758, 146.405 579.314, 146.641 579.883, 146.916 580.464, 147.232 581.059, 147.593 581.695, 148.019 581.863, 148.140 582.053, 148.284 582.237, 148.430 582.413, 148.579 582.584, 148.729 582.748, 148.882 582.908, 149.038 583.062, 149.196 583.211, 149.357 583.355, 149.520 583.496, 149.687 583.627, 149.851 583.764, 150.031 583.928, 150.258 584.121, 150.535 584.339, 150.862 584.579, 151.234 584.839, 151.651 585.119, 152.110 585.416, 152.610 585.547, 152.837 585.730, 153.151 586.060, 153.732 586.406, 154.351 586.793, 155.057 587.129, 155.658 587.504, 156.294 587.893, 156.917 588.299, 157.528 588.725, 158.128 589.174, 158.717 589.650, 159.294 590.156, 159.861 590.697, 160.414 591.279, 160.953 591.906, 161.473 592.576, 161.965 593.277, 162.416 593.998, 162.819 594.734, 163.176 595.482, 163.487 596.236, 163.752 596.995, 163.974 597.754, 164.155 598.512, 164.297 599.267, 164.404 600.020, 164.477 600.769, 164.520 601.534, 164.534 602.377, 164.515 603.237, 164.456 604.096, 164.356 604.952, 164.214 605.801, 164.029 606.643, 163.802 607.472, 163.533 608.287, 163.222 609.085, 162.870 609.863, 162.480 610.618, 162.052 611.414, 161.549 612.632, 160.659 613.824, 159.613 614.904, 158.473 614.918, 158.459 615.396, 157.850 " fill="none" stroke="rgb(0, 0, 0)" stroke-linecap="butt" stroke-linejoin="round" stroke-opacity="1.0" stroke-width="3.0" />
            <path d=" M 587.948, 206.525 589.620, 206.039 591.277, 205.488 592.919, 204.876 594.543, 204.201 596.065, 203.503 596.262, 203.410 596.621, 203.241 597.068, 203.038 597.486, 202.854 597.877, 202.691 598.237, 202.548 598.566, 202.424 598.861, 202.319 599.120, 202.234 599.341, 202.168 599.520, 202.119 599.654, 202.087 599.848, 202.048 600.480, 201.925 601.197, 201.770 601.895, 201.603 602.576, 201.421 603.244, 201.223 603.902, 201.005 604.557, 200.763 604.902, 200.619 605.212, 200.490 605.876, 200.176 606.557, 199.808 607.262, 199.367 607.921, 198.879 608.395, 198.477 " fill="none" stroke="rgb(0, 0, 0)" stroke-linecap="butt" stroke-linejoin="round" stroke-opacity="1.0" stroke-width="3.0" />
            <path d=" M 527.159, 161.550 527.210, 163.671 527.363, 165.775 527.619, 167.866 527.976, 169.942 528.435, 172.001 528.995, 174.039 529.654, 176.055 530.410, 178.047 531.263, 180.013 532.209, 181.952 533.248, 183.862 534.383, 185.752 534.680, 186.203 535.634, 187.647 536.968, 189.476 538.381, 191.232 539.873, 192.912 541.443, 194.514 543.089, 196.033 544.811, 197.469 546.606, 198.818 548.305, 199.967 548.472, 200.080 550.407, 201.251 552.408, 202.333 554.446, 203.310 556.218, 204.076 557.970, 204.767 559.617, 205.354 559.732, 205.396 561.503, 205.961 563.283, 206.463 565.070, 206.899 " fill="none" stroke="rgb(0, 0, 0)" stroke-linecap="butt" stroke-linejoin="round" stroke-opacity="1.0" stroke-width="3.0" />
            <path d=" M 659.041, 99.936 659.040, 99.935 656.907, 98.465 654.671, 97.373 652.353, 96.562 649.940, 95.963 647.406, 95.532 644.727, 95.240 641.883, 95.072 638.891, 95.019 637.634, 95.029 636.419, 95.058 635.208, 95.107 634.001, 95.175 632.798, 95.263 631.598, 95.371 630.403, 95.499 629.212, 95.646 628.025, 95.813 626.843, 96.000 625.665, 96.206 624.444, 96.442 622.437, 96.891 620.484, 97.427 618.616, 98.054 616.824, 98.792 615.102, 99.666 613.449, 100.714 611.881, 101.977 610.850, 103.065 " fill="none" stroke="rgb(0, 0, 0)" stroke-linecap="butt" stroke-linejoin="round" stroke-opacity="1.0" stroke-width="3.0" />
            <path d=" M 709.325, 110.348 709.249, 108.913 709.005, 107.434 708.583, 105.969 707.983, 104.557 707.221, 103.235 706.324, 102.031 705.323, 100.961 704.247, 100.026 703.121, 99.218 701.957, 98.524 700.767, 97.930 699.553, 97.422 698.315, 96.988 697.050, 96.616 695.751, 96.296 694.414, 96.021 693.034, 95.788 691.606, 95.591 690.129, 95.429 688.598, 95.299 687.010, 95.199 685.365, 95.129 683.659, 95.087 681.894, 95.074 680.369, 95.084 678.883, 95.115 677.431, 95.167 676.011, 95.240 674.624, 95.335 673.269, 95.452 671.946, 95.591 670.652, 95.754 669.389, 95.942 668.154, 96.154 666.948, 96.393 665.746, 96.664 665.006, 96.858 664.248, 97.092 663.497, 97.361 662.755, 97.666 662.023, 98.008 661.306, 98.388 660.605, 98.805 659.924, 99.259 659.266, 99.750 659.041, 99.936 " fill="none" stroke="rgb(0, 0, 0)" stroke-linecap="butt" stroke-linejoin="round" stroke-opacity="1.0" stroke-width="3.0" />
            <path d=" M 701.625, 161.190 701.612, 161.098 701.537, 160.400 701.465, 159.548 701.398, 158.555 701.382, 158.243 " fill="none" stroke="rgb(0, 0, 0)" stroke-linecap="butt" stroke-linejoin="round" stroke-opacity="1.0" stroke-width="3.0" />
            <path d=" M 708.556, 172.002 708.517, 170.967 708.398, 169.962 708.188, 168.940 707.877, 167.916 707.464, 166.909 706.950, 165.937 706.344, 165.022 705.660, 164.180 704.915, 163.420 704.125, 162.749 703.307, 162.165 702.605, 161.742 702.053, 161.434 701.677, 161.220 701.625, 161.190 " fill="none" stroke="rgb(0, 0, 0)" stroke-linecap="butt" stroke-linejoin="round" stroke-opacity="1.0" stroke-width="3.0" />
            <path d=" M 656.401, 141.950 656.773, 141.709 657.247, 141.390 657.715, 141.063 658.176, 140.724 658.495, 140.477 " fill="none" stroke="rgb(0, 0, 0)" stroke-linecap="butt" stroke-linejoin="round" stroke-opacity="1.0" stroke-width="3.0" />
            <path d=" M 656.206, 145.928 656.224, 145.070 656.232, 144.828 656.249, 144.285 656.281, 143.574 656.318, 142.940 656.359, 142.390 656.401, 141.950 " fill="none" stroke="rgb(0, 0, 0)" stroke-linecap="butt" stroke-linejoin="round" stroke-opacity="1.0" stroke-width="3.0" />
            <path d=" M 660.505, 141.845 660.511, 141.878 660.568, 142.293 660.626, 142.803 660.681, 143.401 660.731, 144.082 660.774, 144.840 660.811, 145.674 " fill="none" stroke="rgb(0, 0, 0)" stroke-linecap="butt" stroke-linejoin="round" stroke-opacity="1.0" stroke-width="3.0" />
            <path d=" M 658.495, 140.477 658.807, 140.713 659.243, 141.024 659.687, 141.324 660.138, 141.617 660.505, 141.845 " fill="none" stroke="rgb(0, 0, 0)" stroke-linecap="butt" stroke-linejoin="round" stroke-opacity="1.0" stroke-width="3.0" />
            <path d=" M 701.967, 142.166 702.484, 141.904 703.517, 141.276 704.516, 140.548 705.465, 139.714 706.346, 138.773 707.138, 137.732 707.822, 136.606 708.381, 135.415 708.808, 134.184 709.102, 132.938 709.270, 131.698 709.325, 130.436 " fill="none" stroke="rgb(0, 0, 0)" stroke-linecap="butt" stroke-linejoin="round" stroke-opacity="1.0" stroke-width="3.0" />
            <path d=" M 701.202, 169.996 701.202, 169.728 701.204, 168.941 701.211, 167.817 701.222, 166.628 701.238, 165.376 701.258, 164.059 701.283, 162.679 701.289, 162.366 701.308, 161.421 701.312, 161.236 701.317, 161.010 701.346, 159.730 701.382, 158.243 701.384, 158.160 701.427, 156.528 701.475, 154.834 701.527, 153.076 701.581, 151.354 701.633, 149.763 701.683, 148.307 701.732, 146.984 701.779, 145.797 701.824, 144.747 701.867, 143.837 701.908, 143.072 701.945, 142.460 701.967, 142.166 " fill="none" stroke="rgb(0, 0, 0)" stroke-linecap="butt" stroke-linejoin="round" stroke-opacity="1.0" stroke-width="3.0" />
            <path d=" M 657.670, 202.317 657.958, 202.588 659.010, 203.402 660.100, 204.104 661.216, 204.707 662.355, 205.223 663.590, 205.693 664.853, 206.096 666.146, 206.440 667.473, 206.734 668.838, 206.983 670.246, 207.191 671.699, 207.362 673.201, 207.499 674.756, 207.603 676.364, 207.677 678.028, 207.720 679.748, 207.734 681.680, 207.720 683.112, 207.687 683.534, 207.678 685.315, 207.606 686.369, 207.544 687.025, 207.505 688.668, 207.373 690.247, 207.208 691.764, 207.009 693.224, 206.771 694.633, 206.492 695.995, 206.165 697.319, 205.783 698.608, 205.336 699.866, 204.810 701.097, 204.193 702.296, 203.471 703.453, 202.630 704.552, 201.657 705.569, 200.548 706.472, 199.307 707.233, 197.952 707.827, 196.512 708.243, 195.026 708.483, 193.529 708.556, 192.091 " fill="none" stroke="rgb(0, 0, 0)" stroke-linecap="butt" stroke-linejoin="round" stroke-opacity="1.0" stroke-width="3.0" />
            <path d=" M 655.896, 174.304 655.904, 174.303 656.352, 174.277 656.957, 174.241 658.129, 174.192 659.415, 174.156 659.773, 174.150 660.812, 174.134 660.845, 174.134 " fill="none" stroke="rgb(0, 0, 0)" stroke-linecap="butt" stroke-linejoin="round" stroke-opacity="1.0" stroke-width="3.0" />
            <path d=" M 655.862, 176.497 655.864, 175.951 655.870, 175.396 655.880, 174.862 655.895, 174.348 655.896, 174.304 " fill="none" stroke="rgb(0, 0, 0)" stroke-linecap="butt" stroke-linejoin="round" stroke-opacity="1.0" stroke-width="3.0" />
            <path d=" M 648.545, 206.387 649.889, 206.042 651.198, 205.648 652.476, 205.196 653.726, 204.680 654.946, 204.089 656.136, 203.410 657.290, 202.626 657.670, 202.317 " fill="none" stroke="rgb(0, 0, 0)" stroke-linecap="butt" stroke-linejoin="round" stroke-opacity="1.0" stroke-width="3.0" />
            <path d=" M 629.798, 207.609 631.337, 207.679 632.911, 207.720 634.523, 207.734 636.274, 207.719 " fill="none" stroke="rgb(0, 0, 0)" stroke-linecap="butt" stroke-linejoin="round" stroke-opacity="1.0" stroke-width="3.0" />
            <path d=" M 608.395, 198.477 608.483, 198.640 608.892, 199.299 609.331, 199.922 609.795, 200.509 610.283, 201.063 610.794, 201.587 611.328, 202.082 611.880, 202.547 612.450, 202.983 613.033, 203.388 613.629, 203.765 614.235, 204.113 614.849, 204.434 615.472, 204.730 616.101, 205.000 616.737, 205.247 617.394, 205.478 618.640, 205.866 619.931, 206.215 " fill="none" stroke="rgb(0, 0, 0)" stroke-linecap="butt" stroke-linejoin="round" stroke-opacity="1.0" stroke-width="3.0" />
            <path d=" M 615.396, 157.850 615.430, 159.933 615.437, 160.340 615.438, 160.366 615.438, 160.412 615.444, 160.787 615.451, 161.198 615.456, 161.517 615.457, 161.597 615.463, 161.976 615.463, 161.984 615.468, 162.359 615.473, 162.723 615.477, 163.074 615.480, 163.413 615.482, 163.739 615.484, 164.053 615.484, 164.347 " fill="none" stroke="rgb(0, 0, 0)" stroke-linecap="butt" stroke-linejoin="round" stroke-opacity="1.0" stroke-width="3.0" />
            <path d=" M 312.165, 243.904 311.234, 243.870 309.959, 243.723 308.790, 243.489 307.712, 243.173 306.711, 242.779 305.769, 242.303 304.869, 241.738 303.998, 241.072 303.145, 240.291 302.307, 239.381 301.484, 238.328 300.655, 237.087 300.508, 236.838 " fill="none" stroke="rgb(0, 0, 0)" stroke-linecap="butt" stroke-linejoin="round" stroke-opacity="1.0" stroke-width="3.0" />
            <path d=" M 284.556, 189.326 283.145, 189.914 281.144, 190.832 279.185, 191.827 277.282, 192.893 275.435, 194.032 273.646, 195.243 271.918, 196.525 270.252, 197.878 268.649, 199.301 267.112, 200.793 265.642, 202.352 264.240, 203.977 262.899, 205.675 261.472, 207.666 260.153, 209.716 258.952, 211.817 257.871, 213.967 256.913, 216.162 256.080, 218.401 255.374, 220.680 254.797, 222.995 254.349, 225.341 254.030, 227.716 253.839, 230.115 253.777, 232.528 " fill="none" stroke="rgb(0, 0, 0)" stroke-linecap="butt" stroke-linejoin="round" stroke-opacity="1.0" stroke-width="3.0" />
            <path d=" M 297.064, 244.017 297.081, 243.220 297.128, 242.480 297.203, 241.800 297.302, 241.179 297.422, 240.616 297.561, 240.108 297.714, 239.651 297.879, 239.242 298.055, 238.876 298.242, 238.545 298.439, 238.243 298.648, 237.968 298.855, 237.731 299.047, 237.541 299.226, 237.388 299.397, 237.264 299.569, 237.160 299.749, 237.068 299.950, 236.986 300.183, 236.912 300.456, 236.846 300.508, 236.838 300.780, 236.793 301.161, 236.756 301.614, 236.743 302.148, 236.757 302.688, 236.801 303.222, 236.873 303.755, 236.975 304.289, 237.108 304.828, 237.273 305.375, 237.472 305.932, 237.708 306.500, 237.983 307.081, 238.299 307.676, 238.660 308.312, 239.086 308.481, 239.207 308.671, 239.351 308.854, 239.497 309.030, 239.646 309.201, 239.796 309.366, 239.949 309.525, 240.105 309.679, 240.263 309.828, 240.424 309.973, 240.587 310.113, 240.754 310.245, 240.918 310.382, 241.098 310.546, 241.325 310.738, 241.603 310.956, 241.929 311.196, 242.301 311.456, 242.718 311.736, 243.177 312.033, 243.678 312.165, 243.904 312.347, 244.218 312.677, 244.799 313.023, 245.418 313.410, 246.124 313.746, 246.725 314.121, 247.361 314.510, 247.984 314.917, 248.595 315.343, 249.195 315.791, 249.784 316.267, 250.361 316.773, 250.928 317.315, 251.481 317.896, 252.020 318.523, 252.540 319.193, 253.032 319.894, 253.483 320.615, 253.887 321.352, 254.243 322.099, 254.554 322.854, 254.819 323.612, 255.041 324.371, 255.222 325.129, 255.364 325.885, 255.471 326.637, 255.544 327.386, 255.587 328.151, 255.601 328.995, 255.582 329.854, 255.523 330.713, 255.423 331.569, 255.281 332.419, 255.096 333.260, 254.870 334.089, 254.600 334.904, 254.289 335.702, 253.938 336.480, 253.547 337.236, 253.119 338.031, 252.616 339.249, 251.726 340.441, 250.680 341.036, 250.052 341.535, 249.526 " fill="none" stroke="rgb(0, 0, 0)" stroke-linecap="butt" stroke-linejoin="round" stroke-opacity="1.0" stroke-width="3.0" />
            <path d=" M 253.777, 252.617 253.828, 254.739 253.981, 256.842 254.236, 258.933 254.593, 261.009 255.052, 263.068 255.612, 265.106 256.271, 267.122 257.027, 269.114 257.880, 271.080 258.827, 273.019 259.866, 274.929 261.000, 276.819 262.251, 278.714 263.585, 280.543 264.998, 282.299 266.490, 283.979 268.060, 285.581 269.707, 287.100 271.428, 288.536 273.223, 289.885 275.090, 291.147 277.025, 292.318 279.026, 293.400 281.064, 294.377 282.836, 295.143 284.588, 295.834 286.349, 296.463 288.120, 297.028 289.900, 297.530 291.688, 297.966 293.482, 298.337 295.284, 298.642 297.090, 298.879 298.901, 299.050 300.715, 299.152 302.531, 299.186 304.277, 299.154 306.016, 299.056 307.747, 298.894 309.468, 298.666 311.179, 298.373 312.879, 298.015 314.565, 297.592 316.237, 297.106 317.895, 296.556 319.536, 295.943 321.160, 295.268 322.682, 294.570 323.239, 294.308 323.685, 294.105 324.104, 293.922 324.494, 293.758 324.854, 293.615 325.183, 293.491 325.478, 293.387 325.738, 293.301 325.959, 293.235 326.138, 293.186 326.271, 293.154 326.465, 293.115 327.098, 292.992 327.815, 292.837 328.512, 292.670 329.193, 292.488 329.861, 292.290 330.520, 292.073 331.174, 291.830 331.829, 291.557 332.493, 291.243 333.174, 290.875 333.879, 290.434 334.539, 289.946 335.019, 289.538 " fill="none" stroke="rgb(0, 0, 0)" stroke-linecap="butt" stroke-linejoin="round" stroke-opacity="1.0" stroke-width="3.0" />
            <path d=" M 421.462, 213.848 421.399, 211.900 421.200, 209.932 420.861, 207.992 420.725, 207.459 " fill="none" stroke="rgb(0, 0, 0)" stroke-linecap="butt" stroke-linejoin="round" stroke-opacity="1.0" stroke-width="3.0" />
            <path d=" M 335.019, 289.538 336.636, 291.863 338.768, 293.822 341.095, 295.289 343.539, 296.382 346.099, 297.202 348.798, 297.815 351.668, 298.262 354.732, 298.567 358.010, 298.744 361.482, 298.801 363.392, 298.790 365.182, 298.757 366.896, 298.700 368.536, 298.621 370.104, 298.517 371.603, 298.388 373.037, 298.231 374.410, 298.045 375.729, 297.826 377.001, 297.568 378.236, 297.265 379.443, 296.905 380.635, 296.471 381.813, 295.950 382.975, 295.326 384.111, 294.582 385.206, 293.702 386.235, 292.675 387.164, 291.502 387.356, 291.185 " fill="none" stroke="rgb(0, 0, 0)" stroke-linecap="butt" stroke-linejoin="round" stroke-opacity="1.0" stroke-width="3.0" />
            <path d=" M 415.319, 250.800 416.053, 249.919 416.745, 249.002 417.392, 248.051 417.994, 247.071 418.548, 246.070 419.055, 245.049 419.514, 244.007 419.926, 242.945 420.290, 241.866 420.604, 240.771 420.869, 239.662 421.084, 238.542 421.250, 237.413 421.266, 237.264 421.368, 236.276 421.438, 235.133 421.462, 233.937 " fill="none" stroke="rgb(0, 0, 0)" stroke-linecap="butt" stroke-linejoin="round" stroke-opacity="1.0" stroke-width="3.0" />
            <path d=" M 387.356, 291.185 387.586, 291.474 388.808, 292.821 390.235, 294.125 391.775, 295.293 393.413, 296.319 395.134, 297.202 396.923, 297.944 398.773, 298.553 400.675, 299.035 402.627, 299.398 404.628, 299.650 406.677, 299.797 408.737, 299.843 410.272, 299.826 411.728, 299.775 413.150, 299.688 414.541, 299.564 415.902, 299.402 417.233, 299.200 418.537, 298.955 419.814, 298.665 421.064, 298.326 422.288, 297.936 423.486, 297.491 424.625, 296.999 425.267, 296.686 425.868, 296.362 426.457, 296.015 427.030, 295.645 427.588, 295.251 428.129, 294.836 428.651, 294.399 429.154, 293.943 429.636, 293.467 430.096, 292.974 430.535, 292.465 430.952, 291.940 431.349, 291.396 431.728, 290.829 432.086, 290.237 432.421, 289.619 432.730, 288.974 433.010, 288.301 433.256, 287.603 433.464, 286.881 433.632, 286.137 433.754, 285.375 433.829, 284.601 433.848, 284.006 " fill="none" stroke="rgb(0, 0, 0)" stroke-linecap="butt" stroke-linejoin="round" stroke-opacity="1.0" stroke-width="3.0" />
            <path d=" M 428.675, 207.756 427.967, 208.889 426.787, 211.028 425.728, 213.225 424.793, 215.475 423.983, 217.775 423.298, 220.121 422.741, 222.510 422.309, 224.938 422.002, 227.401 421.820, 229.898 421.759, 232.417 " fill="none" stroke="rgb(0, 0, 0)" stroke-linecap="butt" stroke-linejoin="round" stroke-opacity="1.0" stroke-width="3.0" />
            <path d=" M 433.848, 284.006 434.043, 284.227 435.586, 285.810 437.207, 287.312 438.904, 288.732 440.674, 290.068 442.516, 291.317 444.426, 292.480 446.402, 293.555 448.422, 294.532 450.140, 295.279 451.854, 295.954 453.585, 296.567 455.333, 297.116 457.097, 297.601 458.876, 298.022 460.668, 298.378 462.474, 298.669 464.291, 298.895 466.118, 299.057 467.955, 299.154 469.785, 299.185 471.212, 299.166 472.623, 299.110 474.031, 299.017 475.438, 298.886 476.843, 298.718 478.245, 298.513 479.645, 298.270 481.041, 297.992 482.433, 297.676 483.821, 297.324 485.205, 296.937 486.617, 296.503 488.814, 295.747 490.984, 294.894 493.096, 293.954 495.146, 292.927 497.132, 291.812 499.054, 290.611 500.907, 289.325 502.690, 287.953 504.400, 286.499 506.036, 284.964 507.596, 283.350 509.084, 281.653 510.697, 279.618 512.187, 277.514 513.547, 275.348 514.773, 273.121 515.862, 270.836 516.810, 268.496 517.613, 266.105 518.271, 263.668 518.782, 261.190 519.145, 258.676 519.362, 256.131 519.433, 253.585 " fill="none" stroke="rgb(0, 0, 0)" stroke-linecap="butt" stroke-linejoin="round" stroke-opacity="1.0" stroke-width="3.0" />
            <path d=" M 425.655, 271.417 425.898, 271.937 426.568, 273.365 " fill="none" stroke="rgb(0, 0, 0)" stroke-linecap="butt" stroke-linejoin="round" stroke-opacity="1.0" stroke-width="3.0" />
            <path d=" M 421.759, 252.506 421.807, 254.711 421.854, 255.434 421.879, 255.808 421.949, 256.887 422.188, 259.043 " fill="none" stroke="rgb(0, 0, 0)" stroke-linecap="butt" stroke-linejoin="round" stroke-opacity="1.0" stroke-width="3.0" />
            <path d=" M 472.311, 245.716 472.308, 245.713 472.161, 245.504 472.011, 245.275 471.485, 244.416 470.969, 243.518 470.466, 242.585 469.975, 241.618 469.498, 240.617 469.127, 239.790 " fill="none" stroke="rgb(0, 0, 0)" stroke-linecap="butt" stroke-linejoin="round" stroke-opacity="1.0" stroke-width="3.0" />
            <path d=" M 465.917, 237.076 465.946, 237.084 466.022, 237.110 466.127, 237.153 466.261, 237.215 466.424, 237.299 466.613, 237.407 466.826, 237.540 467.052, 237.693 467.273, 237.854 467.488, 238.023 467.705, 238.208 467.924, 238.408 468.145, 238.626 468.369, 238.862 468.595, 239.118 468.824, 239.393 469.054, 239.690 469.127, 239.790 469.286, 240.008 469.519, 240.349 469.752, 240.710 470.196, 241.446 470.630, 242.214 471.056, 243.016 471.472, 243.851 471.879, 244.722 472.274, 245.627 472.311, 245.716 472.659, 246.567 473.033, 247.542 473.394, 248.553 473.743, 249.599 474.080, 250.681 474.403, 251.799 474.706, 252.927 474.981, 254.038 475.229, 255.128 475.449, 256.198 475.641, 257.248 475.807, 258.278 475.946, 259.287 476.059, 260.276 476.146, 261.244 476.208, 262.192 476.244, 263.120 476.253, 263.776 476.256, 263.998 " fill="none" stroke="rgb(0, 0, 0)" stroke-linecap="butt" stroke-linejoin="round" stroke-opacity="1.0" stroke-width="3.0" />
            <path d=" M 465.692, 237.100 465.699, 237.098 465.738, 237.090 465.824, 237.079 465.917, 237.076 " fill="none" stroke="rgb(0, 0, 0)" stroke-linecap="butt" stroke-linejoin="round" stroke-opacity="1.0" stroke-width="3.0" />
            <path d=" M 464.334, 240.744 464.334, 240.721 464.342, 240.360 464.363, 240.020 464.397, 239.708 464.442, 239.422 464.496, 239.162 464.557, 238.924 464.626, 238.705 464.701, 238.502 464.784, 238.312 464.874, 238.131 464.972, 237.957 465.073, 237.800 465.264, 237.537 465.418, 237.351 465.539, 237.225 465.623, 237.150 465.672, 237.113 465.692, 237.100 465.692, 237.100 " fill="none" stroke="rgb(0, 0, 0)" stroke-linecap="butt" stroke-linejoin="round" stroke-opacity="1.0" stroke-width="3.0" />
            <path d=" M 534.680, 186.203 533.406, 186.195 530.097, 186.253 526.958, 186.434 524.015, 186.746 523.295, 186.866 " fill="none" stroke="rgb(0, 0, 0)" stroke-linecap="butt" stroke-linejoin="round" stroke-opacity="1.0" stroke-width="3.0" />
            <path d=" M 601.470, 230.385 602.629, 231.149 " fill="none" stroke="rgb(0, 0, 0)" stroke-linecap="butt" stroke-linejoin="round" stroke-opacity="1.0" stroke-width="3.0" />
            <path d=" M 573.116, 272.887 576.998, 282.103 579.513, 288.074 579.814, 288.766 580.168, 289.511 580.547, 290.244 580.954, 290.962 581.391, 291.667 581.862, 292.358 582.368, 293.032 582.912, 293.687 583.497, 294.321 584.125, 294.930 584.796, 295.509 585.511, 296.053 586.264, 296.554 587.045, 297.004 587.845, 297.402 588.658, 297.747 589.481, 298.042 590.310, 298.289 591.141, 298.490 591.973, 298.649 592.804, 298.768 593.635, 298.849 594.464, 298.896 595.276, 298.911 595.916, 298.903 596.537, 298.876 597.159, 298.831 597.785, 298.764 598.414, 298.675 599.047, 298.560 599.684, 298.418 600.326, 298.246 600.971, 298.041 601.618, 297.799 602.265, 297.518 602.908, 297.196 603.533, 296.837 604.130, 296.448 604.696, 296.034 605.231, 295.599 605.736, 295.146 606.211, 294.678 606.658, 294.196 607.079, 293.704 607.476, 293.201 607.849, 292.690 608.202, 292.170 608.522, 291.665 608.871, 291.083 609.198, 290.518 609.516, 289.948 609.826, 289.374 610.129, 288.795 610.425, 288.211 610.716, 287.622 611.001, 287.029 611.281, 286.431 611.557, 285.829 611.829, 285.222 612.101, 284.604 612.410, 283.883 612.792, 282.977 613.247, 281.885 613.779, 280.600 614.387, 279.119 615.073, 277.441 615.838, 275.565 616.682, 273.490 617.604, 271.215 618.604, 268.742 619.684, 266.068 620.876, 263.113 624.399, 253.754 627.921, 244.395 630.507, 237.524 630.772, 236.812 631.014, 236.172 631.242, 235.580 631.456, 235.035 631.655, 234.540 631.837, 234.095 632.002, 233.704 632.148, 233.369 632.272, 233.095 632.370, 232.888 632.434, 232.759 632.459, 232.713 632.463, 232.705 632.472, 232.692 632.476, 232.686 " fill="none" stroke="rgb(0, 0, 0)" stroke-linecap="butt" stroke-linejoin="round" stroke-opacity="1.0" stroke-width="3.0" />
            <path d=" M 519.428, 247.631 523.070, 256.944 526.712, 266.258 530.355, 275.571 533.997, 284.884 534.705, 286.695 535.041, 287.517 535.405, 288.348 535.788, 289.158 536.191, 289.948 536.617, 290.721 537.070, 291.476 537.555, 292.214 538.075, 292.935 538.636, 293.639 539.244, 294.324 539.905, 294.986 540.624, 295.620 541.397, 296.210 542.208, 296.745 543.047, 297.219 543.907, 297.633 544.782, 297.986 545.666, 298.281 546.555, 298.522 547.446, 298.711 548.336, 298.851 549.224, 298.948 550.110, 299.004 550.988, 299.021 551.910, 299.005 552.818, 298.954 553.725, 298.865 554.634, 298.734 555.544, 298.556 556.457, 298.326 557.370, 298.039 558.280, 297.688 559.183, 297.267 560.072, 296.772 560.936, 296.199 561.758, 295.553 562.507, 294.859 563.175, 294.146 563.775, 293.421 564.324, 292.683 564.834, 291.930 565.314, 291.157 565.770, 290.362 566.209, 289.542 566.635, 288.694 567.049, 287.814 567.456, 286.902 567.858, 285.953 571.591, 276.676 573.116, 272.887 " fill="none" stroke="rgb(0, 0, 0)" stroke-linecap="butt" stroke-linejoin="round" stroke-opacity="1.0" stroke-width="3.0" />
            <path d=" M 730.405, 200.677 730.330, 199.179 730.086, 197.659 729.656, 196.141 729.031, 194.666 728.222, 193.276 727.254, 192.012 726.162, 190.896 724.983, 189.937 723.748, 189.130 722.477, 188.460 721.184, 187.909 719.884, 187.466 718.911, 187.199 717.947, 186.984 716.967, 186.805 715.959, 186.654 714.914, 186.527 713.826, 186.421 712.688, 186.333 711.497, 186.263 710.250, 186.209 708.945, 186.171 708.551, 186.165 " fill="none" stroke="rgb(0, 0, 0)" stroke-linecap="butt" stroke-linejoin="round" stroke-opacity="1.0" stroke-width="3.0" />
            <path d=" M 721.514, 253.395 721.514, 252.494 721.514, 251.757 721.507, 250.567 721.501, 249.441 721.494, 248.358 721.488, 247.317 721.482, 246.319 721.477, 245.364 721.472, 244.451 721.468, 243.582 721.464, 242.756 721.463, 242.475 " fill="none" stroke="rgb(0, 0, 0)" stroke-linecap="butt" stroke-linejoin="round" stroke-opacity="1.0" stroke-width="3.0" />
            <path d=" M 634.409, 251.915 634.032, 252.148 633.560, 252.449 633.103, 252.750 632.657, 253.054 632.221, 253.364 631.791, 253.686 631.363, 254.024 630.930, 254.389 630.488, 254.793 630.028, 255.255 629.540, 255.806 629.057, 256.444 628.624, 257.120 628.255, 257.804 627.947, 258.487 627.694, 259.162 627.491, 259.826 627.332, 260.476 627.211, 261.110 627.124, 261.730 627.066, 262.335 627.034, 262.927 627.021, 263.632 " fill="none" stroke="rgb(0, 0, 0)" stroke-linecap="butt" stroke-linejoin="round" stroke-opacity="1.0" stroke-width="3.0" />
            <path d=" M 635.089, 243.538 635.078, 243.790 634.998, 245.361 634.907, 246.836 634.804, 248.216 634.691, 249.496 634.569, 250.676 634.445, 251.690 634.409, 251.915 " fill="none" stroke="rgb(0, 0, 0)" stroke-linecap="butt" stroke-linejoin="round" stroke-opacity="1.0" stroke-width="3.0" />
            <path d=" M 683.106, 220.292 683.121, 221.064 683.160, 221.693 683.227, 222.330 683.327, 222.975 683.460, 223.627 683.630, 224.284 683.840, 224.942 684.091, 225.599 " fill="none" stroke="rgb(0, 0, 0)" stroke-linecap="butt" stroke-linejoin="round" stroke-opacity="1.0" stroke-width="3.0" />
            <path d=" M 722.151, 233.004 722.745, 232.723 723.840, 232.111 724.906, 231.401 725.933, 230.584 726.903, 229.652 727.796, 228.601 728.586, 227.440 729.249, 226.184 729.767, 224.860 730.130, 223.499 730.339, 222.130 730.405, 220.766 " fill="none" stroke="rgb(0, 0, 0)" stroke-linecap="butt" stroke-linejoin="round" stroke-opacity="1.0" stroke-width="3.0" />
            <path d=" M 721.459, 242.802 721.463, 242.475 721.477, 241.262 721.513, 239.827 721.567, 238.495 721.637, 237.269 721.723, 236.153 721.823, 235.152 721.933, 234.270 722.052, 233.516 722.151, 233.004 " fill="none" stroke="rgb(0, 0, 0)" stroke-linecap="butt" stroke-linejoin="round" stroke-opacity="1.0" stroke-width="3.0" />
            <path d=" M 721.459, 260.626 721.459, 250.626 721.459, 242.802 " fill="none" stroke="rgb(0, 0, 0)" stroke-linecap="butt" stroke-linejoin="round" stroke-opacity="1.0" stroke-width="3.0" />
            <path d=" M 666.501, 267.302 666.988, 267.739 674.481, 274.449 681.931, 281.119 689.381, 287.790 695.059, 292.875 695.540, 293.307 696.026, 293.737 696.496, 294.146 696.950, 294.534 697.390, 294.902 697.820, 295.253 698.241, 295.587 698.657, 295.907 699.076, 296.215 699.504, 296.515 699.955, 296.812 700.448, 297.111 700.984, 297.404 701.541, 297.673 702.107, 297.913 702.679, 298.124 703.255, 298.306 703.833, 298.460 704.411, 298.587 704.986, 298.688 705.558, 298.764 706.125, 298.816 706.688, 298.847 707.404, 298.860 708.813, 298.777 710.393, 298.485 711.952, 297.975 713.434, 297.254 714.790, 296.350 715.986, 295.303 717.012, 294.160 717.875, 292.957 718.593, 291.719 719.187, 290.457 719.677, 289.178 720.076, 287.893 720.355, 286.791 720.589, 285.679 720.788, 284.532 720.959, 283.343 721.103, 282.106 721.224, 280.818 721.322, 279.473 721.400, 278.070 721.458, 276.605 721.496, 275.077 721.514, 273.484 " fill="none" stroke="rgb(0, 0, 0)" stroke-linecap="butt" stroke-linejoin="round" stroke-opacity="1.0" stroke-width="3.0" />
            <path d=" M 627.021, 283.721 627.081, 284.955 627.288, 286.317 627.644, 287.668 628.150, 288.979 628.793, 290.222 629.557, 291.373 630.418, 292.419 631.352, 293.354 632.342, 294.180 633.371, 294.907 634.430, 295.544 635.514, 296.102 636.619, 296.590 637.745, 297.016 638.893, 297.386 640.062, 297.705 641.254, 297.977 642.470, 298.206 643.710, 298.394 644.977, 298.544 646.271, 298.659 647.595, 298.739 648.950, 298.786 650.374, 298.802 653.292, 298.743 656.075, 298.558 658.710, 298.235 661.217, 297.756 663.617, 297.086 665.928, 296.177 668.147, 294.958 670.226, 293.347 672.044, 291.295 673.430, 288.846 674.253, 286.167 674.494, 283.591 " fill="none" stroke="rgb(0, 0, 0)" stroke-linecap="butt" stroke-linejoin="round" stroke-opacity="1.0" stroke-width="3.0" />
            <path d=" M 633.765, 233.348 633.785, 233.411 633.841, 233.602 633.889, 233.782 634.092, 234.652 634.282, 235.628 634.463, 236.747 634.631, 238.003 634.784, 239.390 634.919, 240.905 635.034, 242.544 635.089, 243.538 635.130, 244.303 635.205, 246.182 635.260, 248.178 635.292, 250.290 635.303, 252.523 " fill="none" stroke="rgb(0, 0, 0)" stroke-linecap="butt" stroke-linejoin="round" stroke-opacity="1.0" stroke-width="3.0" />
            <path d=" M 632.476, 232.686 632.859, 232.888 633.325, 233.121 633.587, 233.253 633.752, 233.341 633.765, 233.348 " fill="none" stroke="rgb(0, 0, 0)" stroke-linecap="butt" stroke-linejoin="round" stroke-opacity="1.0" stroke-width="3.0" />
            <path d=" M 394.548, 167.832 394.812, 166.388 " fill="none" stroke="rgb(0, 0, 0)" stroke-linecap="butt" stroke-linejoin="round" stroke-opacity="1.0" stroke-width="3.0" />
            <path d=" M 323.252, 215.312 322.957, 218.732 " fill="none" stroke="rgb(0, 0, 0)" stroke-linecap="butt" stroke-linejoin="round" stroke-opacity="1.0" stroke-width="3.0" />
            <path d=" M 344.332, 124.244 344.037, 127.665 " fill="none" stroke="rgb(0, 0, 0)" stroke-linecap="butt" stroke-linejoin="round" stroke-opacity="1.0" stroke-width="3.0" />
            <path d=" M 377.209, 260.750 376.803, 258.570 " fill="none" stroke="rgb(0, 0, 0)" stroke-linecap="butt" stroke-linejoin="round" stroke-opacity="1.0" stroke-width="3.0" />
            <path d=" M 377.614, 228.913 376.852, 226.592 376.750, 226.282 " fill="none" stroke="rgb(0, 0, 0)" stroke-linecap="butt" stroke-linejoin="round" stroke-opacity="1.0" stroke-width="3.0" />
            <path d=" M 376.042, 245.019 374.115, 245.442 374.112, 245.443 " fill="none" stroke="rgb(0, 0, 0)" stroke-linecap="butt" stroke-linejoin="round" stroke-opacity="1.0" stroke-width="3.0" />
            <path d=" M 378.552, 276.083 375.738, 277.446 375.736, 277.447 " fill="none" stroke="rgb(0, 0, 0)" stroke-linecap="butt" stroke-linejoin="round" stroke-opacity="1.0" stroke-width="3.0" />
            <path d=" M 387.844, 187.165 386.470, 187.327 " fill="none" stroke="rgb(0, 0, 0)" stroke-linecap="butt" stroke-linejoin="round" stroke-opacity="1.0" stroke-width="3.0" />
            <path d=" M 390.128, 184.554 389.826, 183.584 389.270, 181.792 " fill="none" stroke="rgb(0, 0, 0)" stroke-linecap="butt" stroke-linejoin="round" stroke-opacity="1.0" stroke-width="3.0" />
            <path d=" M 394.812, 166.388 394.151, 166.253 393.193, 166.057 " fill="none" stroke="rgb(0, 0, 0)" stroke-linecap="butt" stroke-linejoin="round" stroke-opacity="1.0" stroke-width="3.0" />
            <path d=" M 400.324, 154.849 400.781, 154.284 400.893, 154.146 401.587, 153.289 401.732, 153.110 401.891, 152.914 401.894, 152.909 " fill="none" stroke="rgb(0, 0, 0)" stroke-linecap="butt" stroke-linejoin="round" stroke-opacity="1.0" stroke-width="3.0" />
            <path d=" M 407.662, 166.082 407.755, 166.496 407.892, 167.107 408.041, 167.771 " fill="none" stroke="rgb(0, 0, 0)" stroke-linecap="butt" stroke-linejoin="round" stroke-opacity="1.0" stroke-width="3.0" />
            <path d=" M 405.114, 251.508 403.902, 249.849 " fill="none" stroke="rgb(0, 0, 0)" stroke-linecap="butt" stroke-linejoin="round" stroke-opacity="1.0" stroke-width="3.0" />
            <path d=" M 412.404, 186.173 414.078, 188.416 " fill="none" stroke="rgb(0, 0, 0)" stroke-linecap="butt" stroke-linejoin="round" stroke-opacity="1.0" stroke-width="3.0" />
            <path d=" M 411.552, 185.809 412.004, 185.638 414.946, 184.522 " fill="none" stroke="rgb(0, 0, 0)" stroke-linecap="butt" stroke-linejoin="round" stroke-opacity="1.0" stroke-width="3.0" />
            <path d=" M 412.404, 186.173 415.223, 186.174 " fill="none" stroke="rgb(0, 0, 0)" stroke-linecap="butt" stroke-linejoin="round" stroke-opacity="1.0" stroke-width="3.0" />
            <path d=" M 421.763, 238.220 421.266, 237.264 " fill="none" stroke="rgb(0, 0, 0)" stroke-linecap="butt" stroke-linejoin="round" stroke-opacity="1.0" stroke-width="3.0" />
            <path d=" M 421.314, 276.223 419.009, 277.554 " fill="none" stroke="rgb(0, 0, 0)" stroke-linecap="butt" stroke-linejoin="round" stroke-opacity="1.0" stroke-width="3.0" />
            <path d=" M 449.165, 184.620 446.469, 187.068 " fill="none" stroke="rgb(0, 0, 0)" stroke-linecap="butt" stroke-linejoin="round" stroke-opacity="1.0" stroke-width="3.0" />
            <path d=" M 465.980, 230.884 465.972, 237.073 " fill="none" stroke="rgb(0, 0, 0)" stroke-linecap="butt" stroke-linejoin="round" stroke-opacity="1.0" stroke-width="3.0" />
            <path d=" M 475.790, 141.364 478.262, 140.034 478.262, 140.033 " fill="none" stroke="rgb(0, 0, 0)" stroke-linecap="butt" stroke-linejoin="round" stroke-opacity="1.0" stroke-width="3.0" />
            <path d=" M 509.353, 141.758 508.877, 138.688 " fill="none" stroke="rgb(0, 0, 0)" stroke-linecap="butt" stroke-linejoin="round" stroke-opacity="1.0" stroke-width="3.0" />
            <path d=" M 509.532, 142.155 509.717, 141.946 511.867, 139.517 " fill="none" stroke="rgb(0, 0, 0)" stroke-linecap="butt" stroke-linejoin="round" stroke-opacity="1.0" stroke-width="3.0" />
            <path d=" M 519.428, 247.631 519.426, 253.218 " fill="none" stroke="rgb(0, 0, 0)" stroke-linecap="butt" stroke-linejoin="round" stroke-opacity="1.0" stroke-width="3.0" />
            <path d=" M 518.196, 229.915 519.224, 229.303 520.171, 228.739 " fill="none" stroke="rgb(0, 0, 0)" stroke-linecap="butt" stroke-linejoin="round" stroke-opacity="1.0" stroke-width="3.0" />
            <path d=" M 523.299, 172.198 523.298, 175.381 523.296, 185.381 523.295, 186.866 523.294, 192.072 " fill="none" stroke="rgb(0, 0, 0)" stroke-linecap="butt" stroke-linejoin="round" stroke-opacity="1.0" stroke-width="3.0" />
            <path d=" M 558.884, 247.235 557.135, 248.299 " fill="none" stroke="rgb(0, 0, 0)" stroke-linecap="butt" stroke-linejoin="round" stroke-opacity="1.0" stroke-width="3.0" />
            <path d=" M 563.259, 235.699 563.779, 235.867 565.342, 236.371 565.348, 236.372 " fill="none" stroke="rgb(0, 0, 0)" stroke-linecap="butt" stroke-linejoin="round" stroke-opacity="1.0" stroke-width="3.0" />
            <path d=" M 572.815, 257.938 574.620, 256.799 " fill="none" stroke="rgb(0, 0, 0)" stroke-linecap="butt" stroke-linejoin="round" stroke-opacity="1.0" stroke-width="3.0" />
            <path d=" M 596.634, 124.245 596.340, 127.665 " fill="none" stroke="rgb(0, 0, 0)" stroke-linecap="butt" stroke-linejoin="round" stroke-opacity="1.0" stroke-width="3.0" />
            <path d=" M 595.110, 227.834 592.998, 226.212 " fill="none" stroke="rgb(0, 0, 0)" stroke-linecap="butt" stroke-linejoin="round" stroke-opacity="1.0" stroke-width="3.0" />
            <path d=" M 595.110, 227.834 592.389, 227.844 " fill="none" stroke="rgb(0, 0, 0)" stroke-linecap="butt" stroke-linejoin="round" stroke-opacity="1.0" stroke-width="3.0" />
            <path d=" M 602.714, 245.427 600.948, 247.053 " fill="none" stroke="rgb(0, 0, 0)" stroke-linecap="butt" stroke-linejoin="round" stroke-opacity="1.0" stroke-width="3.0" />
            <path d=" M 608.030, 228.200 610.904, 227.928 " fill="none" stroke="rgb(0, 0, 0)" stroke-linecap="butt" stroke-linejoin="round" stroke-opacity="1.0" stroke-width="3.0" />
            <path d=" M 618.132, 183.458 621.209, 185.579 " fill="none" stroke="rgb(0, 0, 0)" stroke-linecap="butt" stroke-linejoin="round" stroke-opacity="1.0" stroke-width="3.0" />
            <path d=" M 619.427, 140.092 622.294, 138.833 " fill="none" stroke="rgb(0, 0, 0)" stroke-linecap="butt" stroke-linejoin="round" stroke-opacity="1.0" stroke-width="3.0" />
            <path d=" M 651.400, 150.455 651.134, 150.591 649.090, 151.638 " fill="none" stroke="rgb(0, 0, 0)" stroke-linecap="butt" stroke-linejoin="round" stroke-opacity="1.0" stroke-width="3.0" />
            <path d=" M 652.384, 183.813 649.872, 185.516 " fill="none" stroke="rgb(0, 0, 0)" stroke-linecap="butt" stroke-linejoin="round" stroke-opacity="1.0" stroke-width="3.0" />
            <path d=" M 662.189, 257.400 662.454, 254.949 " fill="none" stroke="rgb(0, 0, 0)" stroke-linecap="butt" stroke-linejoin="round" stroke-opacity="1.0" stroke-width="3.0" />
            <path d=" M 663.806, 184.225 666.161, 186.448 " fill="none" stroke="rgb(0, 0, 0)" stroke-linecap="butt" stroke-linejoin="round" stroke-opacity="1.0" stroke-width="3.0" />
            <path d=" M 666.259, 150.562 666.994, 152.827 " fill="none" stroke="rgb(0, 0, 0)" stroke-linecap="butt" stroke-linejoin="round" stroke-opacity="1.0" stroke-width="3.0" />
            <path d=" M 666.225, 168.825 668.171, 168.046 668.172, 168.045 " fill="none" stroke="rgb(0, 0, 0)" stroke-linecap="butt" stroke-linejoin="round" stroke-opacity="1.0" stroke-width="3.0" />
            <path d=" M 674.481, 274.449 674.472, 283.181 " fill="none" stroke="rgb(0, 0, 0)" stroke-linecap="butt" stroke-linejoin="round" stroke-opacity="1.0" stroke-width="3.0" />
            <path d=" M 696.196, 242.484 695.546, 244.911 695.546, 244.911 " fill="none" stroke="rgb(0, 0, 0)" stroke-linecap="butt" stroke-linejoin="round" stroke-opacity="1.0" stroke-width="3.0" />
            <path d=" M 697.092, 184.558 695.515, 186.553 " fill="none" stroke="rgb(0, 0, 0)" stroke-linecap="butt" stroke-linejoin="round" stroke-opacity="1.0" stroke-width="3.0" />
            <path d=" M 697.740, 138.993 695.798, 136.841 " fill="none" stroke="rgb(0, 0, 0)" stroke-linecap="butt" stroke-linejoin="round" stroke-opacity="1.0" stroke-width="3.0" />
            <path d=" M 697.092, 184.558 694.830, 185.692 " fill="none" stroke="rgb(0, 0, 0)" stroke-linecap="butt" stroke-linejoin="round" stroke-opacity="1.0" stroke-width="3.0" />
            <path d=" M 718.365, 229.700 716.522, 227.218 " fill="none" stroke="rgb(0, 0, 0)" stroke-linecap="butt" stroke-linejoin="round" stroke-opacity="1.0" stroke-width="3.0" />
            <path d=" M 721.514, 252.494 721.514, 262.494 721.514, 265.621 721.514, 272.234 " fill="none" stroke="rgb(0, 0, 0)" stroke-linecap="butt" stroke-linejoin="round" stroke-opacity="1.0" stroke-width="3.0" />
        </g>
    </g>
</svg>
